<svg
  xmlns="http://www.w3.org/2000/svg"
  viewBox="0 0 384 512"
  fill="white"
>
  <path
    d="M318.7 268.7c-.2-36.7 16.4-64.4 50-84.8-18.8-26.9-47.2-41.7-84.7-44.6-35.5-2.8-74.3 20.7-88.5 20.7-15 0-49.4-19.7-76.4-19.7C39.2 141.6 0 184.2 0 241.2c0 61.6 31.6 116.4 63.3 153.2 31.6 36.7 58.3 59 88.5 59 25.8 0 42.5-16.1 63.3-16.1s35.5 16.1 63.3 16.1c30.2 0 53.3-20.7 80.4-52.4-22.3-22.3-33.8-50-33.8-80.4zM245.2 105.7c22.3-28.9 22.3-63.3 2.8-88.5-24.1-31.6-63.3-31.6-88.5 0-24.1 30.2-24.1 63.3 0 88.5 24.1 27.2 64.4 27.2 85.7 0z"
  />
</svg>
